<svg xmlns="http://www.w3.org/2000/svg" width="11.487" height="14.934" viewBox="0 0 11.487 14.934">
  <g id="noun_bill_2670802" transform="translate(-6 -3)">
    <g id="Group_1299" data-name="Group 1299" transform="translate(6 3)">
      <path id="Path_1306" data-name="Path 1306" d="M17.362,6.087l-2.3-2.872A.574.574,0,0,0,14.616,3H6.574A.574.574,0,0,0,6,3.574V17.359a.574.574,0,0,0,.574.574H16.913a.574.574,0,0,0,.574-.574V6.446A.574.574,0,0,0,17.362,6.087Zm-1.023,10.7H7.149V4.149H14.34l2,2.5Z" transform="translate(-6 -3)" fill="#747171"/>
      <path id="Path_1307" data-name="Path 1307" d="M9,23.728a.574.574,0,0,0,.574.574h6.892a.574.574,0,1,0,0-1.149H9.574A.574.574,0,0,0,9,23.728Z" transform="translate(-7.277 -11.578)" fill="#747171"/>
      <path id="Path_1308" data-name="Path 1308" d="M14.953,14.595H13.574a.574.574,0,1,0,0,1.149h.574a.574.574,0,0,0,1.149,0V15.7a1.493,1.493,0,0,0-.345-2.943h-.459a.345.345,0,0,1,0-.689h.919a.574.574,0,0,0,0-1.149H15.3v-.344a.574.574,0,0,0-1.149,0v.388a1.493,1.493,0,0,0,.345,2.943h.459a.345.345,0,1,1,0,.689Z" transform="translate(-8.979 -5.979)" fill="#747171"/>
    </g>
  </g>
</svg>
