<svg id="noun_pay_2911346" xmlns="http://www.w3.org/2000/svg" width="14.615" height="14.992" viewBox="0 0 14.615 14.992">
  <path id="Path_1586" data-name="Path 1586" d="M23.391,11.6H15.317a1.208,1.208,0,0,0-1.242,1.139V14.4c-1.19,1.139-3.313,3.52-3.571,3.778-.518.466-.569.932-.518,1.035v6.814a.569.569,0,0,0,1.139,0v-6.3A1.014,1.014,0,0,1,11.486,19h0l2.433-2.8h0c.052-.052.1-.052.207-.052v3.054l-1.087.932h0a.618.618,0,0,0,0,.776.555.555,0,0,0,.725.052h0l2.64-2.226h0a.438.438,0,0,1,.311-.1,1.32,1.32,0,0,1,.673.311.72.72,0,0,1,0,.983L13.35,23.66h0a.729.729,0,0,0-.155.259.6.6,0,0,0,.1.569.559.559,0,0,0,.362.155.988.988,0,0,0,.414-.155l.259-.207a1.212,1.212,0,0,0,.932.414h8.075a1.208,1.208,0,0,0,1.242-1.139V12.687A1.09,1.09,0,0,0,23.391,11.6ZM15.213,23.3l2.95-2.743h0a1.845,1.845,0,0,0,0-2.536,2.044,2.044,0,0,0-1.449-.621h0a1.445,1.445,0,0,0-1.035.414h0l-.518.414V13.1c0-.362.1-.466.518-.466h4.658V23.453H15.679c-.259,0-.414,0-.466-.155Zm8.333-.259c0,.362-.1.466-.518.466H21.579V12.635h1.5c.414,0,.518.1.518.466Z" transform="translate(-9.969 -11.6)" fill="#747171"/>
</svg>
