<svg xmlns="http://www.w3.org/2000/svg" width="14.08" height="13.58" viewBox="0 0 14.08 13.58">
  <g id="Group_27" data-name="Group 27" transform="translate(31.005 29.904)">
    <g id="noun_event_1359560" transform="translate(-31.005 -29.904)">
      <path id="Path_55" data-name="Path 55" d="M20.383,11.084h-.438v-.6a.676.676,0,0,0-1.352,0v.6H16.046v-.6a.676.676,0,0,0-1.352,0v.6H12.147v-.6a.676.676,0,1,0-1.352,0v.6h-.438A2.027,2.027,0,0,0,8.33,13.111v8.251a2.027,2.027,0,0,0,2.027,2.027H20.383a2.027,2.027,0,0,0,2.027-2.027V13.111A2.027,2.027,0,0,0,20.383,11.084Zm.676,10.281a.676.676,0,0,1-.676.676H10.357a.676.676,0,0,1-.676-.676V15.831H21.059Zm0-6.883H9.682V13.113a.676.676,0,0,1,.676-.676h.438v.6a.676.676,0,1,0,1.352,0v-.6h2.548v.6a.676.676,0,0,0,1.352,0v-.6h2.548v.6a.676.676,0,0,0,1.352,0v-.6h.438a.676.676,0,0,1,.676.676Z" transform="translate(-8.33 -9.81)" fill="#fff"/>
      <path id="Path_56" data-name="Path 56" d="M30.476,51.141a.6.6,0,0,0,.844.009l3.438-3.29a.6.6,0,1,0-.835-.872l-3.012,2.878-1.452-1.449a.6.6,0,1,0-.854.854Z" transform="translate(-24.032 -40.03)" fill="#fff"/>
    </g>
  </g>
</svg>
