<svg xmlns="http://www.w3.org/2000/svg" width="15.46" height="17.006" viewBox="0 0 15.46 17.006">
  <path id="calendar_1_" data-name="calendar (1)" d="M89.2,64.772v.773H87.653a2.32,2.32,0,0,0-2.319,2.319V78.686a2.32,2.32,0,0,0,2.319,2.319H98.475a2.32,2.32,0,0,0,2.319-2.319V67.864a2.32,2.32,0,0,0-2.319-2.319H96.929v-.773a.773.773,0,0,0-1.546,0v.773H90.745v-.773a.773.773,0,0,0-1.546,0Zm10.049,5.411H86.88V67.864a.773.773,0,0,1,.773-.773H89.2v.773a.773.773,0,0,0,1.546,0v-.773h4.638v.773a.773.773,0,1,0,1.546,0v-.773h1.546a.773.773,0,0,1,.773.773ZM86.88,71.729H99.248v6.957a.773.773,0,0,1-.773.773H87.653a.773.773,0,0,1-.773-.773Z" transform="translate(-85.334 -63.999)" fill="#5b5b5b"/>
</svg>
