<svg xmlns="http://www.w3.org/2000/svg" width="16" height="15.34" viewBox="0 0 12.508 11.961">
  <g id="noun_logout_3574287" transform="translate(-6 -5)">
    <g id="Logout_Access_Exit_Out_Door" data-name="Logout, Access, Exit, Out, Door" transform="translate(6 5)">
      <path id="Path_1304" data-name="Path 1304" d="M14.155,13.7v2.718a.544.544,0,0,1-.544.544H9.262a.544.544,0,0,1-.332-.109L6.212,14.786A.544.544,0,0,1,6,14.351V5.544A.544.544,0,0,1,6.544,5h7.068a.544.544,0,0,1,.544.544V8.262a.544.544,0,0,1-1.087,0V6.087H7.087v7.992l2.36,1.794h3.621V13.7a.544.544,0,0,1,1.087,0Zm4.192-3.1L16.716,8.963a.546.546,0,1,0-.772.772l.707.7h-6.3a.544.544,0,1,0,0,1.087h6.3l-.707.7a.546.546,0,1,0,.772.772l1.631-1.631a.544.544,0,0,0,0-.772Z" transform="translate(-6 -5)" fill="#747171"/>
    </g>
  </g>
</svg>
