<svg xmlns="http://www.w3.org/2000/svg" width="16.756" height="18.432" viewBox="0 0 16.756 18.432">
  <path id="trash" d="M98.737,69.026V79.918a.838.838,0,0,1-.838.838H89.521a.838.838,0,0,1-.838-.838V69.026ZM97.9,67.35v-.838A2.514,2.514,0,0,0,95.386,64H92.035a2.514,2.514,0,0,0-2.513,2.513v.838H86.17a.838.838,0,0,0,0,1.676h.838V79.918a2.514,2.514,0,0,0,2.513,2.513H97.9a2.514,2.514,0,0,0,2.513-2.513V69.026h.838a.838.838,0,0,0,0-1.676Zm-6.7,0v-.838a.838.838,0,0,1,.838-.838h3.351a.838.838,0,0,1,.838.838v.838Z" transform="translate(-85.332 -63.999)" fill="#5b5b5b"/>
</svg>
