<svg xmlns="http://www.w3.org/2000/svg" width="12.18" height="14.887" viewBox="0 0 12.18 14.887">
  <path id="file-text" d="M135.443,64H130.03A2.031,2.031,0,0,0,128,66.03V76.857a2.031,2.031,0,0,0,2.03,2.03h8.12a2.031,2.031,0,0,0,2.03-2.03v-8.12a.675.675,0,0,0-.2-.478l-4.06-4.06a.674.674,0,0,0-.478-.2Zm2.427,4.06h-1.75V66.31Zm-3.1-2.707v3.383a.677.677,0,0,0,.677.677h3.383v7.443a.677.677,0,0,1-.677.677h-8.12a.677.677,0,0,1-.677-.677V66.03a.677.677,0,0,1,.677-.677Zm2.03,6.09h-5.413a.677.677,0,0,0,0,1.353H136.8a.677.677,0,1,0,0-1.353Zm0,2.707h-5.413a.677.677,0,0,0,0,1.353H136.8a.677.677,0,1,0,0-1.353Zm-4.06-5.413h-1.353a.677.677,0,0,0,0,1.353h1.353a.677.677,0,0,0,0-1.353Z" transform="translate(-128 -64)" fill="#f6f6f6"/>
</svg>
