<svg xmlns="http://www.w3.org/2000/svg" width="21.65" height="19.381" viewBox="0 0 21.65 19.381">
  <g id="download-button" transform="translate(-0.489 -3)">
    <path id="Path_1145" data-name="Path 1145" d="M19.133,19.1v5.113H3.495V19.1H.489V25.72a1.5,1.5,0,0,0,1.505,1.5h18.64a1.5,1.5,0,0,0,1.505-1.5V19.1Z" transform="translate(0 -4.842)" fill="#bcbcbc"/>
    <path id="Path_1146" data-name="Path 1146" d="M13.066,13.756l-4.3-5.2s-.655-.618.055-.618h2.425V.369S11.146,0,11.7,0h3.413c.4,0,.391.311.391.311V7.782h2.238c.862,0,.213.647.213.647S14.3,13.29,13.786,13.8A.477.477,0,0,1,13.066,13.756Z" transform="translate(-2.027 3)" fill="#bcbcbc"/>
  </g>
</svg>
