<svg xmlns="http://www.w3.org/2000/svg" width="11.075" height="11.449" viewBox="0 0 11.075 11.449">
  <g id="download-button" transform="translate(-0.489)">
    <path id="Path_1145" data-name="Path 1145" d="M10.027,19.1V21.72h-8V19.1H.489v3.384a.769.769,0,0,0,.77.768h9.536a.769.769,0,0,0,.77-.768V19.1Z" transform="translate(0 -11.808)" fill="#fff"/>
    <path id="Path_1146" data-name="Path 1146" d="M10.83,7.037l-2.2-2.66s-.335-.316.028-.316H9.9V.189S9.848,0,10.132,0h1.746c.2,0,.2.159.2.159V3.981h1.145c.441,0,.109.331.109.331S11.459,6.8,11.2,7.06A.244.244,0,0,1,10.83,7.037Z" transform="translate(-4.944)" fill="#fff"/>
  </g>
</svg>
