<svg xmlns="http://www.w3.org/2000/svg" width="17.181" height="16.427" viewBox="0 0 17.181 16.427">
  <path id="edit-3" d="M93.908,117.93h7.731a.859.859,0,1,0,0-1.718H93.908a.859.859,0,1,0,0,1.718Zm3.258-15.641L86.429,113.027a.852.852,0,0,0-.226.4l-.859,3.436a.844.844,0,0,0,0,.417.859.859,0,0,0,1.042.625l3.436-.859a.86.86,0,0,0,.4-.226l10.738-10.738a2.682,2.682,0,0,0-3.793-3.793Zm1.215,1.215a.963.963,0,0,1,1.362,1.362l-10.57,10.57-1.817.454.454-1.817Z" transform="translate(-85.318 -101.504)" fill="#5b5b5b"/>
</svg>
