<svg xmlns="http://www.w3.org/2000/svg" width="22.285" height="14.674" viewBox="0 0 22.285 14.674">
  <g id="noun_Eye_248960" transform="translate(-5 -20.37)">
    <path id="Path_1302" data-name="Path 1302" d="M16.142,20.37A12.439,12.439,0,0,0,5,27.707a12.44,12.44,0,0,0,11.142,7.337,12.441,12.441,0,0,0,11.143-7.337A12.441,12.441,0,0,0,16.142,20.37Zm0,4.434a1.505,1.505,0,1,1-1.506,1.505A1.506,1.506,0,0,1,16.146,24.8Zm5.49,6.348a9.776,9.776,0,0,1-10.988,0A10.9,10.9,0,0,1,7.4,27.707a10.9,10.9,0,0,1,3.252-3.446,10.107,10.107,0,0,1,.94-.561,5.249,5.249,0,1,0,9.108,0,10.165,10.165,0,0,1,.94.561,10.9,10.9,0,0,1,3.252,3.446A10.9,10.9,0,0,1,21.636,31.153Z" fill="#bcbcbc"/>
  </g>
</svg>
