<svg id="Group_1303" data-name="Group 1303" xmlns="http://www.w3.org/2000/svg" width="17" height="17" viewBox="0 0 15.466 15.467">
  <path id="Path_1310" data-name="Path 1310" d="M13.417,15.833a2.417,2.417,0,1,1,2.417-2.417A2.419,2.419,0,0,1,13.417,15.833Zm0-3.867a1.45,1.45,0,1,0,1.45,1.45A1.452,1.452,0,0,0,13.417,11.967Z" transform="translate(-5.683 -5.683)" fill="#747171"/>
  <path id="Path_1311" data-name="Path 1311" d="M7.733,15.466c-.144,0-.287,0-.428-.013a.959.959,0,0,1-.849-.642l-.581-1.635A5.347,5.347,0,0,1,5.2,12.9l-1.566.738a.966.966,0,0,1-1.061-.147,7.968,7.968,0,0,1-.6-.6.965.965,0,0,1-.147-1.061L2.57,10.27A5.423,5.423,0,0,1,2.29,9.6L.656,9.01a.961.961,0,0,1-.643-.849Q0,7.948,0,7.733c0-.144,0-.287.012-.428a.96.96,0,0,1,.643-.849L2.29,5.874A5.329,5.329,0,0,1,2.564,5.2L1.826,3.634a.965.965,0,0,1,.147-1.061,7.718,7.718,0,0,1,.6-.6.965.965,0,0,1,1.061-.147L5.2,2.568a5.369,5.369,0,0,1,.672-.279L6.456.655A.961.961,0,0,1,7.3.011a7.671,7.671,0,0,1,.856,0A.96.96,0,0,1,9.01.655l.581,1.635a5.419,5.419,0,0,1,.673.274l1.566-.738a.963.963,0,0,1,1.061.147,7.8,7.8,0,0,1,.6.6.966.966,0,0,1,.147,1.061L12.9,5.2a5.274,5.274,0,0,1,.279.672l1.635.588a.959.959,0,0,1,.642.849c.008.142.013.285.013.429s0,.287-.013.428a.96.96,0,0,1-.642.849l-1.635.581a5.437,5.437,0,0,1-.274.674l.738,1.566a.965.965,0,0,1-.147,1.061,7.791,7.791,0,0,1-.6.6.968.968,0,0,1-1.061.148L10.27,12.9a5.253,5.253,0,0,1-.671.279l-.588,1.635a.959.959,0,0,1-.849.642C8.02,15.461,7.877,15.466,7.733,15.466ZM5.191,11.932a.984.984,0,0,1,.435.1,4.732,4.732,0,0,0,.554.228.965.965,0,0,1,.606.591l.582,1.636a5.9,5.9,0,0,0,.74,0l.574-1.637a.967.967,0,0,1,.607-.592,4.717,4.717,0,0,0,.554-.228.967.967,0,0,1,.843-.01l1.562.742a5.789,5.789,0,0,0,.526-.519l-.749-1.562a.965.965,0,0,1,.01-.844,4.768,4.768,0,0,0,.228-.554.963.963,0,0,1,.592-.606L14.488,8.1h0l0,0c0-.115.007-.239.007-.364s0-.25-.011-.374l-1.637-.574a.969.969,0,0,1-.592-.607,4.724,4.724,0,0,0-.228-.553.971.971,0,0,1-.01-.844l.742-1.562a5.664,5.664,0,0,0-.519-.526l-1.562.749a.971.971,0,0,1-.843-.009A4.852,4.852,0,0,0,9.287,3.2a.966.966,0,0,1-.606-.592L8.1.979a5.721,5.721,0,0,0-.74,0L6.785,2.614a.968.968,0,0,1-.606.591,4.712,4.712,0,0,0-.554.228.972.972,0,0,1-.844.009L3.22,2.7a5.79,5.79,0,0,0-.526.519l.748,1.563a.966.966,0,0,1-.009.843,4.816,4.816,0,0,0-.228.554.966.966,0,0,1-.591.606L.979,7.366c-.008.116-.012.241-.012.366s0,.25.011.374l1.637.574a.966.966,0,0,1,.591.606,4.773,4.773,0,0,0,.228.555.966.966,0,0,1,.009.843L2.7,12.246a5.726,5.726,0,0,0,.519.525l1.563-.748A.961.961,0,0,1,5.191,11.932Z" transform="translate(0 0.001)" fill="#747171"/>
</svg>
