<svg xmlns="http://www.w3.org/2000/svg" width="17" height="17" viewBox="0 0 14 14.001">
  <g id="info" transform="translate(-13.2 -13.2)">
    <path id="Path_1596" data-name="Path 1596" d="M49.34,51.7a.636.636,0,0,1-.434-.129.6.6,0,0,1-.129-.467c0-.08.016-.209.032-.354a3.214,3.214,0,0,1,.08-.418l.338-1.481a3.112,3.112,0,0,0,.064-.435,3.172,3.172,0,0,0,.016-.338,1.022,1.022,0,0,0-.241-.708.92.92,0,0,0-.708-.274,1.523,1.523,0,0,0-.563.113,6.057,6.057,0,0,0-.6.257,1,1,0,0,0,.064.225.817.817,0,0,1,.274-.048.542.542,0,0,1,.434.145.689.689,0,0,1,.113.451,2.891,2.891,0,0,1-.032.354c-.016.129-.048.258-.08.4l-.354,1.5c-.032.145-.048.29-.064.418a2.608,2.608,0,0,0-.016.354.915.915,0,0,0,.982.982,1.443,1.443,0,0,0,.547-.1c.161-.064.354-.161.611-.274a1.261,1.261,0,0,0-.048-.225A1.082,1.082,0,0,1,49.34,51.7Z" transform="translate(-28.529 -28.444)" fill="#fff"/>
    <path id="Path_1597" data-name="Path 1597" d="M53.369,32.2a.815.815,0,0,0-.611.257.894.894,0,0,0,0,1.255.855.855,0,0,0,1.223,0,.826.826,0,0,0,.257-.628.85.85,0,0,0-.257-.628A.84.84,0,0,0,53.369,32.2Z" transform="translate(-32.976 -15.942)" fill="#fff"/>
    <path id="Path_1598" data-name="Path 1598" d="M20.2,13.2a7,7,0,1,0,7,7A7.005,7.005,0,0,0,20.2,13.2Zm0,12.875A5.874,5.874,0,1,1,26.074,20.2,5.886,5.886,0,0,1,20.2,26.075Z" fill="#fff"/>
  </g>
</svg>
