<svg xmlns="http://www.w3.org/2000/svg" width="12.565" height="16.826" viewBox="0 0 12.565 16.826">
  <path id="Path_1269" data-name="Path 1269" d="M27.514,11.588h-.259V9.576a4.576,4.576,0,0,0-9.152,0v2.012h-.259A1.449,1.449,0,0,0,16.4,13.035v7.344a1.449,1.449,0,0,0,1.447,1.447h9.67a1.449,1.449,0,0,0,1.447-1.447V13.035A1.449,1.449,0,0,0,27.514,11.588Zm-3.445,7.568h-2.78l.721-2.29a1.39,1.39,0,1,1,1.338,0Zm1.816-7.568H19.473V9.576a3.206,3.206,0,1,1,6.411,0Z" transform="translate(-16.396 -5)" fill="#fff"/>
</svg>
