<svg xmlns="http://www.w3.org/2000/svg" width="17.81" height="13" viewBox="0 0 17.81 13">
  <g id="megaphone_1" transform="translate(-14.194 -25.625)">
    <path id="Path_1607" data-name="Path 1607" d="M27.96,25.641l-8.324,2.885a6.866,6.866,0,0,1-2.172.366H16.69a2.138,2.138,0,0,0-1.549.6,3.154,3.154,0,0,0-.946,2.239,2.787,2.787,0,0,0,2.323,3.058h.968c.215,0,.43.022.667.043v.883a2.7,2.7,0,0,0,2.387,2.907h.495a2.524,2.524,0,0,0,2.3-2.175l4.646,1.593h.151a.474.474,0,0,0,.323-.129.6.6,0,0,0,.194-.474v-11.2a.6.6,0,0,0-.194-.474A.538.538,0,0,0,27.96,25.641Zm-8.324,9.517,2.689.926A1.462,1.462,0,0,1,21.013,37.4h-.495a1.17,1.17,0,0,1-.839-.345,1.856,1.856,0,0,1-.516-1.313v-.711A1.707,1.707,0,0,1,19.637,35.158Zm7.98,1.464-7.678-2.648c-.258-.086-.516-.151-.753-.215V29.9c.237-.065.516-.129.753-.215l7.657-2.648Zm-9.485-6.546v3.51c-.237-.022-.452-.043-.667-.043H16.69a1.142,1.142,0,0,1-.86-.323,1.869,1.869,0,0,1-.581-1.313A1.612,1.612,0,0,1,16.561,30.1h.9C17.68,30.1,17.895,30.1,18.131,30.077Z" transform="translate(0 0)" fill="#fff"/>
    <path id="Path_1608" data-name="Path 1608" d="M87.771,51.6H86.416a.61.61,0,0,0,0,1.206h1.355a.575.575,0,0,0,.516-.6A.56.56,0,0,0,87.771,51.6Z" transform="translate(-56.283 -20.382)" fill="#fff"/>
    <path id="Path_1609" data-name="Path 1609" d="M86.433,36.767h0a.609.609,0,0,0,.28-.086l1.161-.84a.659.659,0,0,0,.215-.8.566.566,0,0,0-.344-.323.417.417,0,0,0-.387.065.021.021,0,0,0-.021.022l-1.161.818a.683.683,0,0,0-.194.818A.508.508,0,0,0,86.433,36.767Z" transform="translate(-56.3 -7.121)" fill="#fff"/>
    <path id="Path_1610" data-name="Path 1610" d="M87.928,65.547l-1.183-.861a.426.426,0,0,0-.387-.065.56.56,0,0,0-.344.323.684.684,0,0,0,.172.775l1.161.84a.432.432,0,0,0,.28.086.194.194,0,0,0,.108-.022.533.533,0,0,0,.344-.3A.576.576,0,0,0,87.928,65.547Z" transform="translate(-56.332 -30.583)" fill="#fff"/>
  </g>
</svg>
