<svg xmlns="http://www.w3.org/2000/svg" width="14.001" height="14.007" viewBox="0 0 14.001 14.007">
  <g id="noun_Pencil_3259382" transform="translate(-2.401 -2.433)">
    <g id="_36" data-name="36" transform="translate(2.401 2.433)">
      <path id="Path_1587" data-name="Path 1587" d="M23.962,4.5,22.329,2.869a1.591,1.591,0,0,0-2.189,0L18.92,4.1l3.816,3.816,1.226-1.226a1.545,1.545,0,0,0,0-2.184Z" transform="translate(-10.413 -2.433)" fill="#fff"/>
      <path id="Path_1588" data-name="Path 1588" d="M10.177,7.07,3.59,13.657a.546.546,0,0,0-.139.242l-1.03,4.12a.53.53,0,0,0,.654.649l4.12-1.03a.515.515,0,0,0,.237-.134l6.592-6.587Z" transform="translate(-2.401 -4.682)" fill="#fff"/>
    </g>
  </g>
</svg>
