<svg xmlns="http://www.w3.org/2000/svg" width="14.948" height="12.457" viewBox="0 0 14.948 12.457">
  <path id="users" d="M11.212,118.5v-1.246A3.113,3.113,0,0,0,8.1,114.141H3.115A3.113,3.113,0,0,0,0,117.255V118.5a.623.623,0,1,0,1.246,0v-1.246a1.869,1.869,0,0,1,1.869-1.869H8.1a1.869,1.869,0,0,1,1.869,1.869V118.5a.623.623,0,1,0,1.246,0Zm-2.491-8.72a3.113,3.113,0,1,0-.912,2.2A3.11,3.11,0,0,0,8.721,109.781Zm-1.246,0a1.869,1.869,0,1,1-.547-1.321A1.86,1.86,0,0,1,7.475,109.781Zm7.474,8.72v-1.246a3.094,3.094,0,0,0-.757-2.031,3.149,3.149,0,0,0-1.575-.982.623.623,0,0,0-.318,1.2,1.9,1.9,0,0,1,.952.593,1.852,1.852,0,0,1,.453,1.216V118.5a.623.623,0,1,0,1.246,0ZM9.812,107.974a1.867,1.867,0,0,1,.658,3.3,1.908,1.908,0,0,1-.662.318.623.623,0,0,0,.316,1.2,3.168,3.168,0,0,0,1.092-.526,3.113,3.113,0,0,0-1.1-5.507.623.623,0,0,0-.309,1.207Z" transform="translate(-0.001 -106.667)" fill="#d6d6d6"/>
</svg>
