<svg id="noun_play_648858" xmlns="http://www.w3.org/2000/svg" width="108.013" height="108.013" viewBox="0 0 108.013 108.013">
  <path id="Path_1120" data-name="Path 1120" d="M54.007,9.451A44.556,44.556,0,1,1,9.451,54.007,44.556,44.556,0,0,1,54.007,9.451m0-9.451a54.007,54.007,0,1,0,54.007,54.007A54.007,54.007,0,0,0,54.007,0Z" fill="#fff"/>
  <path id="Path_1121" data-name="Path 1121" d="M34.934,23.842,8.808,38.9a1.688,1.688,0,0,1-2.5-1.485V7.235A1.688,1.688,0,0,1,8.876,5.75L35,20.872a1.688,1.688,0,0,1-.068,2.97Z" transform="translate(36.287 31.65)" fill="#fff"/>
</svg>
