<svg xmlns="http://www.w3.org/2000/svg" width="16.93" height="17.821" viewBox="0 0 16.93 17.821">
  <g id="Group_34" data-name="Group 34" transform="translate(0.15 0.15)">
    <g id="noun_Waiting_Room_912257" data-name="noun_Waiting Room_912257" transform="translate(0)">
      <g id="Group_28" data-name="Group 28" transform="translate(11.764 10.078)">
        <path id="Path_57" data-name="Path 57" d="M39.13,30.623h-.109a2.014,2.014,0,0,0,.436-1.2,1.924,1.924,0,1,0-3.849,0,1.8,1.8,0,0,0,.436,1.2h-.109a.822.822,0,0,0-.835.835v2.4a1.07,1.07,0,0,0,1.089,1.089h2.687a1.07,1.07,0,0,0,1.089-1.089v-2.4A.822.822,0,0,0,39.13,30.623Zm-2.8-1.2a1.2,1.2,0,1,1,1.2,1.2A1.209,1.209,0,0,1,36.335,29.424Zm2.9,4.394a.364.364,0,0,1-.363.363H36.189a.364.364,0,0,1-.363-.363v-2.4a.116.116,0,0,1,.109-.109h3.232a.1.1,0,0,1,.109.109v2.4Z" transform="translate(-35.1 -27.5)" fill="#d6d6d6" stroke="#d6d6d6" stroke-width="0.3"/>
      </g>
      <g id="Group_29" data-name="Group 29" transform="translate(0 10.078)">
        <path id="Path_58" data-name="Path 58" d="M6.767,30.623H6.658a2.014,2.014,0,0,0,.436-1.2,1.924,1.924,0,1,0-3.849,0,1.8,1.8,0,0,0,.436,1.2H3.535a.822.822,0,0,0-.835.835v2.4a1.07,1.07,0,0,0,1.089,1.089H6.476a1.07,1.07,0,0,0,1.089-1.089v-2.4A.814.814,0,0,0,6.767,30.623Zm-2.832-1.2a1.2,1.2,0,1,1,1.2,1.2A1.209,1.209,0,0,1,3.935,29.424Zm2.9,4.394a.343.343,0,0,1-.363.363H3.789a.364.364,0,0,1-.363-.363v-2.4a.116.116,0,0,1,.109-.109H6.767a.1.1,0,0,1,.109.109v2.4Z" transform="translate(-2.7 -27.5)" fill="#d6d6d6" stroke="#d6d6d6" stroke-width="0.3"/>
      </g>
      <g id="Group_30" data-name="Group 30" transform="translate(1.598)">
        <path id="Path_59" data-name="Path 59" d="M19.445,10.815H8.189A1.07,1.07,0,0,1,7.1,9.726V3.589A1.07,1.07,0,0,1,8.189,2.5H19.445a1.07,1.07,0,0,1,1.089,1.089V9.726A1.07,1.07,0,0,1,19.445,10.815ZM8.189,3.226a.343.343,0,0,0-.363.363V9.726a.343.343,0,0,0,.363.363H19.445a.343.343,0,0,0,.363-.363V3.589a.343.343,0,0,0-.363-.363Z" transform="translate(-7.1 -2.5)" fill="#d6d6d6" stroke="#d6d6d6" stroke-width="0.3"/>
      </g>
      <g id="Group_31" data-name="Group 31" transform="translate(5.592 1.452)">
        <path id="Path_60" data-name="Path 60" d="M20.823,11.947a2.723,2.723,0,1,1,2.723-2.723A2.743,2.743,0,0,1,20.823,11.947Zm0-4.72a2,2,0,1,0,2,2A2.015,2.015,0,0,0,20.823,7.226Z" transform="translate(-18.1 -6.5)" fill="#d6d6d6" stroke="#d6d6d6" stroke-width="0.3"/>
      </g>
      <g id="Group_32" data-name="Group 32" transform="translate(7.952 2.469)">
        <path id="Path_61" data-name="Path 61" d="M25.508,11.37h-.545a.343.343,0,0,1-.363-.363V9.663a.363.363,0,1,1,.726,0v.98h.182a.363.363,0,1,1,0,.726Z" transform="translate(-24.6 -9.3)" fill="#d6d6d6" stroke="#d6d6d6" stroke-width="0.3"/>
      </g>
      <g id="Group_33" data-name="Group 33" transform="translate(5.919 10.078)">
        <path id="Path_62" data-name="Path 62" d="M23.03,30.623h-.109a2.014,2.014,0,0,0,.436-1.2,1.924,1.924,0,1,0-3.849,0,1.8,1.8,0,0,0,.436,1.2h-.109a.822.822,0,0,0-.835.835v2.4a1.07,1.07,0,0,0,1.089,1.089h2.687a1.07,1.07,0,0,0,1.089-1.089v-2.4A.822.822,0,0,0,23.03,30.623Zm-2.8-1.2a1.2,1.2,0,1,1,1.2,1.2A1.186,1.186,0,0,1,20.235,29.424Zm2.9,4.394a.364.364,0,0,1-.363.363H20.089a.364.364,0,0,1-.363-.363v-2.4a.116.116,0,0,1,.109-.109h3.232a.1.1,0,0,1,.109.109v2.4Z" transform="translate(-19 -27.5)" fill="#d6d6d6" stroke="#d6d6d6" stroke-width="0.3"/>
      </g>
    </g>
  </g>
</svg>
