<svg xmlns="http://www.w3.org/2000/svg" width="14.4" height="18" viewBox="0 0 14.4 18">
  <path id="support" d="M37.814,24.729a3.349,3.349,0,0,0,.359-.717h.359a1.761,1.761,0,0,0,1.794-1.793v-1.2a1.761,1.761,0,0,0-1.794-1.793A4.19,4.19,0,0,0,34.322,15h-1.2a4.184,4.184,0,0,0-4.21,4.207A1.761,1.761,0,0,0,27.122,21v1.2a1.761,1.761,0,0,0,1.794,1.793h.359l.359.717A4.259,4.259,0,0,0,26.5,28.793V32.4a.565.565,0,0,0,.6.6H40.3a.565.565,0,0,0,.6-.6V28.817A4.19,4.19,0,0,0,37.814,24.729Zm-7.7-2.51v-.6a3.612,3.612,0,0,1,7.224,0v.6a1.643,1.643,0,0,1-.072.6h-3.54a.6.6,0,1,0,0,1.2h3.133a3.626,3.626,0,0,1-4.927,1.315A3.584,3.584,0,0,1,30.112,22.219ZM39.13,21v1.2a.565.565,0,0,1-.6.6V20.4A.565.565,0,0,1,39.13,21Zm-6-4.781h1.2a3.037,3.037,0,0,1,2.823,2.032,4.8,4.8,0,0,0-6.793-.072l-.072.072A3.068,3.068,0,0,1,33.126,16.219Zm-4.808,6v-1.2a.565.565,0,0,1,.6-.6v2.39A.565.565,0,0,1,28.318,22.219ZM39.728,31.8H27.72V28.817A3,3,0,0,1,30.59,25.8a4.86,4.86,0,0,0,6.315,0,2.987,2.987,0,0,1,2.87,3.012v3.012h-.048Z" transform="translate(-26.5 -15)" fill="#fff"/>
</svg>
