<svg xmlns="http://www.w3.org/2000/svg" width="17" height="17" viewBox="0 0 15 15">
  <g id="soporte" transform="translate(-11.428 -8.8)">
    <path id="Path_1599" data-name="Path 1599" d="M25.437,15.012A4.722,4.722,0,0,0,25,11.8c-.978-1.859-3.828-3-5.919-3-2.226,0-5.262,1.207-6.206,3a4.722,4.722,0,0,0-.438,3.212,1.86,1.86,0,0,0-.961,2.054l.27,1.125a1.915,1.915,0,0,0,1.872,1.451,2.008,2.008,0,0,0,.438-.049l.219-.049.219.9a4.56,4.56,0,0,0,5.515,3.228,4.5,4.5,0,0,0,3.069-2.462,3.2,3.2,0,0,0,1.4-1.6,1.917,1.917,0,0,0,1.636-1.435l.27-1.125a1.86,1.86,0,0,0-.944-2.038ZM13.4,12.061c.843-1.582,3.66-2.69,5.683-2.69,1.923,0,4.537,1.076,5.4,2.69a4.22,4.22,0,0,1,.388,2.755l-.135-.033a4.161,4.161,0,0,0-.455-2.3A5.692,5.692,0,0,0,19.4,9.843h-.944A5.662,5.662,0,0,0,13.6,12.485a4.189,4.189,0,0,0-.455,2.3l-.152.033A4.32,4.32,0,0,1,13.4,12.061Zm.438,3.293a3.68,3.68,0,0,1,.3-2.609,5.11,5.11,0,0,1,4.334-2.332h.944a5.148,5.148,0,0,1,4.334,2.332,3.7,3.7,0,0,1,.3,2.609l-.236.929c-3.66-.408-5.582-1.272-6.594-2.951a.306.306,0,0,0-.4-.1.253.253,0,0,0-.135.179c-.557,1.924-1.67,2.2-2.8,2.152Zm.1,3.685a1.336,1.336,0,0,1-1.6-.978l-.27-1.125a1.29,1.29,0,0,1,1.012-1.549l.169-.033c.017.049.017.1.034.147l.877,3.505Zm5.009,4.19a3.944,3.944,0,0,1-3.862-2.935l-1.046-4.174a2.871,2.871,0,0,0,3.019-2.005c.877,1.174,2.479,2.25,6.611,2.723l-.877,3.457c-.051.163-.1.342-.169.505a5.544,5.544,0,0,1-2.294.424.91.91,0,0,0-.877-.6H18.422a.9.9,0,1,0,0,1.793h1.029a.926.926,0,0,0,.877-.6,7.944,7.944,0,0,0,1.872-.228A3.993,3.993,0,0,1,18.945,23.229Zm.843-1.712a.333.333,0,0,1-.337.326H18.422a.326.326,0,1,1,0-.652h1.029a.333.333,0,0,1,.337.326Zm3.643-1.288.169-.685.2.049h.051A2.627,2.627,0,0,1,23.431,20.229Zm2.378-3.293-.27,1.125a1.349,1.349,0,0,1-1.6.978l-.2-.049.877-3.489c.017-.049.017-.1.034-.147l.152.033a1.323,1.323,0,0,1,1.012,1.549Z" fill="#fff"/>
    <path id="Path_1600" data-name="Path 1600" d="M62.575,58.56a.332.332,0,0,0,.2-.065,1.285,1.285,0,0,1,1.552-.033.3.3,0,0,0,.422-.049.281.281,0,0,0-.051-.408,1.9,1.9,0,0,0-2.294.033.293.293,0,0,0-.034.408.222.222,0,0,0,.2.114Z" transform="translate(-42.298 -40.874)" fill="#fff"/>
    <path id="Path_1601" data-name="Path 1601" d="M36.85,58.513a.281.281,0,0,0-.051-.408,1.9,1.9,0,0,0-2.294.033.293.293,0,0,0-.034.408.311.311,0,0,0,.236.1.332.332,0,0,0,.2-.065A1.263,1.263,0,0,1,35.7,58.3a1.189,1.189,0,0,1,.742.245.284.284,0,0,0,.4-.033Z" transform="translate(-19.103 -40.957)" fill="#fff"/>
  </g>
</svg>
