<svg xmlns="http://www.w3.org/2000/svg" width="17.07" height="18.775" viewBox="0 0 17.07 18.775">
  <path id="bell" d="M98.139,69.974a12.906,12.906,0,0,0,1.58,6.828H88.024a12.906,12.906,0,0,0,1.58-6.828,4.268,4.268,0,1,1,8.535,0Zm1.707,0a5.975,5.975,0,1,0-11.949,0c0,5.229-2.042,6.868-2.188,6.977a.853.853,0,0,0,.481,1.559h15.363a.854.854,0,0,0,.487-1.554C101.89,76.844,99.846,75.2,99.846,69.974ZM94.609,80.641a.854.854,0,0,1-1.167.311.825.825,0,0,1-.306-.3.853.853,0,0,0-1.483.846,2.56,2.56,0,0,0,4.432.005.854.854,0,1,0-1.477-.857Z" transform="translate(-85.336 -63.999)" fill="#fff"/>
</svg>
